<svg xmlns="http://www.w3.org/2000/svg" width="830" height="300" viewBox="0 0 830 300" role="img">
<style>
text{font-family:ui-monospace, SFMono-Regular, Menlo, Consolas, 'Liberation Mono', monospace;fill:#E6EDF3}
.m{fill:#8B949E} .i{fill:#6366F1} .v{fill:#8B5CF6} .c{fill:#22D3EE} .b{font-weight:700}

@media (prefers-reduced-motion: reduce){*{animation:none!important}}
</style>
<defs><linearGradient id="grad" x1="0" x2="1"><stop offset="0" stop-color="#6366F1"/><stop offset="1" stop-color="#8B5CF6"/></linearGradient></defs>
<rect x=".5" y=".5" width="829" height="299" rx="12" fill="#0D1117" stroke="#262C36"/>
<path d="M.5 36V12.5a12 12 0 0 1 12-12h805a12 12 0 0 1 12 12V36z" fill="#161B22"/>
<line x1="0" y1="36" x2="830" y2="36" stroke="#262C36"/>
<circle cx="22" cy="18" r="5.5" fill="#6366F1"/><circle cx="40" cy="18" r="5.5" fill="#8B5CF6"/><circle cx="58" cy="18" r="5.5" fill="#22D3EE"/>
<text x="415.0" y="23" font-size="12" class="m" text-anchor="middle" >atiksh@shukla: ~ — zsh</text>
<text x="24" y="66" font-size="14"><tspan class="c b">~ $</tspan> neofetch</text>
<ellipse cx="150" cy="172" rx="78" ry="26" fill="none" stroke="#6366F1" stroke-width="1.6" transform="rotate(0 150 172)"/><ellipse cx="150" cy="172" rx="78" ry="26" fill="none" stroke="#8B5CF6" stroke-width="1.6" transform="rotate(60 150 172)"/><ellipse cx="150" cy="172" rx="78" ry="26" fill="none" stroke="#22D3EE" stroke-width="1.6" transform="rotate(120 150 172)"/><circle cx="150" cy="172" r="9" fill="url(#grad)"/>
<text x="300" y="72" font-size="16" class="b"><tspan class="c">atiksh</tspan><tspan class="m">@</tspan><tspan class="i">shukla</tspan></text>
<line x1="300" y1="84" x2="790" y2="84" stroke="#262C36" stroke-dasharray="4 4"/>
<text x="300" y="108" font-size="14"><tspan class="i b">OS</tspan><tspan class="m"> .......... </tspan><tspan class="">macOS · Phoenix, AZ</tspan></text><text x="300" y="130" font-size="14"><tspan class="i b">Role</tspan><tspan class="m"> ........ </tspan><tspan class="">Founder @ Gainloom</tspan></text><text x="300" y="152" font-size="14"><tspan class="i b">Focus</tspan><tspan class="m"> ....... </tspan><tspan class="">Quantum AI · Aerospace · Software</tspan></text><text x="300" y="174" font-size="14"><tspan class="i b">Philosophy</tspan><tspan class="m"> .. </tspan><tspan class="">Ship in all three.</tspan></text><text x="300" y="218" font-size="14"><tspan class="i b">GitHub</tspan><tspan class="m"> ...... </tspan><tspan class="">25 repos · 19 stars · 2 followers</tspan></text><text x="300" y="240" font-size="14"><tspan class="i b">Commits</tspan><tspan class="m"> ..... </tspan><tspan class="">190 in 2026</tspan></text><text x="300" y="262" font-size="14"><tspan class="i b">Synced</tspan><tspan class="m"> ...... </tspan><tspan class="m">2026-09-25 UTC</tspan></text><rect x="300" y="278" width="24" height="12" rx="2" fill="#6366F1"/><rect x="330" y="278" width="24" height="12" rx="2" fill="#8B5CF6"/><rect x="360" y="278" width="24" height="12" rx="2" fill="#22D3EE"/><rect x="390" y="278" width="24" height="12" rx="2" fill="#A78BFA"/><rect x="420" y="278" width="24" height="12" rx="2" fill="#818CF8"/><rect x="450" y="278" width="24" height="12" rx="2" fill="#67E8F9"/><rect x="480" y="278" width="24" height="12" rx="2" fill="#8B949E"/><rect x="510" y="278" width="24" height="12" rx="2" fill="#E6EDF3"/>
</svg>
